<?xml version="1.0" encoding="iso-8859-1"?>
<!-- Generator: Adobe Illustrator 19.0.0, SVG Export Plug-In . SVG Version: 6.00 Build 0)  -->
<svg xmlns="http://www.w3.org/2000/svg" xmlns:xlink="http://www.w3.org/1999/xlink" version="1.1" id="Layer_1" x="0px" y="0px" viewBox="0 0 512 512" style="enable-background:new 0 0 512 512;" xml:space="preserve">
<path style="fill:#F4CC7A;" d="M431.917,45.295h-28.146v328.493l-89.921,89.92H105.231v26.074c0,8.049,6.524,14.573,14.573,14.573  c3.311,0,307.946,0,312.113,0c8.05,0,14.574-6.523,14.574-14.573c0-14.541,0-422.174,0-429.914  C446.491,51.82,439.967,45.295,431.917,45.295z"/>
<g>
	<path style="fill:#F2BB6B;" d="M129.29,489.781v-26.073h-24.058v26.074c0,8.049,6.524,14.573,14.573,14.573h24.059   C135.815,504.354,129.29,497.83,129.29,489.781z"/>
	<path style="fill:#F2BB6B;" d="M423.33,388.225c3.07-3.013,4.5-8.243,4.5-12.842V45.295H403.77v328.493l-89.921,89.92h33.054   L423.33,388.225L423.33,388.225z"/>
</g>
<path style="fill:#FCD28D;" d="M406.77,373.788V22.22c0-8.049-6.524-14.575-14.574-14.575H80.083  c-8.049,0-14.574,6.525-14.574,14.575v429.913c0,8.048,6.523,14.573,14.574,14.573H313.85L406.77,373.788z"/>
<path style="fill:#F7C781;" d="M90.495,452.133V22.22c0-8.049,6.523-14.575,14.574-14.575H80.083  c-8.049,0-14.574,6.525-14.574,14.575v429.913c0,8.048,6.523,14.573,14.574,14.573h24.987  C97.019,466.706,90.495,460.182,90.495,452.133z"/>
<path style="fill:#F23B3B;" d="M234.456,189.952c0,8.049-6.523,14.575-14.573,14.575h-95.941c-8.05,0-14.574-6.525-14.574-14.575  V64.865c0-8.047,6.523-14.574,14.574-14.574h95.941c8.049,0,14.573,6.526,14.573,14.574V189.952z"/>
<path style="fill:#C62222;" d="M134.637,189.952V64.865c0-8.047,6.523-14.574,14.575-14.574h-25.27  c-8.05,0-14.574,6.526-14.574,14.574v125.088c0,8.049,6.523,14.575,14.574,14.575h25.27  C141.162,204.527,134.637,198.001,134.637,189.952z"/>
<path style="fill:#88DCE5;" d="M194.988,156.353h-46.15c-8.049,0-14.573,6.524-14.573,14.574v33.599h75.296v-33.599  C209.561,162.879,203.036,156.353,194.988,156.353z"/>
<path style="fill:#74C4C4;" d="M174.606,156.353h-25.768c-8.049,0-14.573,6.524-14.573,14.574v33.599h25.767v-33.599  C160.032,162.879,166.555,156.353,174.606,156.353z"/>
<circle style="fill:#F4CF9D;" cx="171.91" cy="109.717" r="24.373"/>
<g>
	<path style="fill:#F7C781;" d="M175.416,85.593c-14.851-2.128-27.877,9.388-27.877,24.12c0,13.462,10.912,24.374,24.373,24.374   c6.623,0,12.627-2.646,17.02-6.934C168.966,124.28,161.009,99.656,175.416,85.593z"/>
	<path style="fill:#F7C781;" d="M406.77,373.788c-9.484,0-93.218,0-103.333,0c-8.049,0-14.574,6.525-14.574,14.573v78.346h24.987   L406.77,373.788z"/>
</g>
<path style="fill:#EAAD54;" d="M406.77,373.788h-78.347c-8.049,0-14.573,6.525-14.573,14.573v78.346L406.77,373.788z"/>
<path d="M219.862,211.997c12.177,0,22.082-9.907,22.082-22.083v-79.976c0-4.143-3.357-7.5-7.5-7.5c-4.143,0-7.5,3.357-7.5,7.5  v79.976c0,3.905-3.177,7.082-7.081,7.082h-2.828v-26.119c0-12.177-9.906-22.082-22.081-22.082h-46.177  c-12.177,0-22.082,9.906-22.082,22.082v26.119h-2.828c-3.904,0-7.081-3.177-7.081-7.082V64.753c0-3.904,3.177-7.081,7.081-7.081  h95.997c3.904,0,7.081,3.177,7.081,7.081v19.184c0,4.143,3.357,7.5,7.5,7.5c4.143,0,7.5-3.357,7.5-7.5V64.753  c0-12.177-9.906-22.082-22.082-22.082h-95.997c-12.177,0-22.082,9.906-22.082,22.082v125.161c0,12.177,9.906,22.083,22.082,22.083  C134.799,211.997,208.956,211.997,219.862,211.997z M141.695,196.996v-26.119c0-3.904,3.177-7.081,7.081-7.081h46.177  c3.904,0,7.08,3.177,7.08,7.081v26.119H141.695z"/>
<path d="M139.974,109.628c0,17.584,14.306,31.89,31.889,31.89s31.889-14.306,31.889-31.89c0-17.583-14.306-31.889-31.889-31.889  S139.974,92.045,139.974,109.628z M188.75,109.628c0,9.313-7.575,16.889-16.888,16.889s-16.888-7.576-16.888-16.889  s7.575-16.888,16.888-16.888S188.75,100.316,188.75,109.628z"/>
<path d="M147.053,245.529c0,4.143,3.357,7.5,7.5,7.5h208.485c4.143,0,7.5-3.357,7.5-7.5c0-4.143-3.357-7.5-7.5-7.5H154.553  C150.41,238.028,147.053,241.386,147.053,245.529z"/>
<path d="M363.038,282.543H154.553c-4.143,0-7.5,3.357-7.5,7.5c0,4.143,3.357,7.5,7.5,7.5h208.485c4.143,0,7.5-3.357,7.5-7.5  C370.538,285.9,367.18,282.543,363.038,282.543z"/>
<path d="M363.038,342.059c4.143,0,7.5-3.357,7.5-7.5s-3.357-7.5-7.5-7.5H154.553c-4.143,0-7.5,3.357-7.5,7.5s3.357,7.5,7.5,7.5  H363.038z"/>
<path d="M125.712,238.028h-7.29c-4.143,0-7.5,3.357-7.5,7.5c0,4.143,3.357,7.5,7.5,7.5h7.29c4.143,0,7.5-3.357,7.5-7.5  C133.212,241.386,129.855,238.028,125.712,238.028z"/>
<path d="M125.712,282.543h-7.29c-4.143,0-7.5,3.357-7.5,7.5c0,4.143,3.357,7.5,7.5,7.5h7.29c4.143,0,7.5-3.357,7.5-7.5  C133.212,285.9,129.855,282.543,125.712,282.543z"/>
<path d="M125.712,327.058h-7.29c-4.143,0-7.5,3.357-7.5,7.5s3.357,7.5,7.5,7.5h7.29c4.143,0,7.5-3.357,7.5-7.5  S129.855,327.058,125.712,327.058z"/>
<path d="M446.602,245.447c4.143,0,7.5-3.357,7.5-7.5V59.753c0-12.177-9.906-22.082-22.082-22.082h-17.662V22.083  C414.358,9.907,404.452,0,392.276,0H79.98C67.803,0,57.897,9.907,57.897,22.083v430.165c0,12.177,9.906,22.082,22.082,22.082h17.663  v15.588c0,12.176,9.906,22.081,22.082,22.081H432.02c12.177,0,22.082-9.906,22.082-22.081V263.948c0-4.143-3.357-7.5-7.5-7.5  s-7.5,3.357-7.5,7.5v225.971c0,3.904-3.177,7.08-7.081,7.08H119.725c-3.904,0-7.081-3.176-7.081-7.08v-15.588  c211.303,0,202.45,0.477,205.037-1.042c0.693-0.407,1.134-0.782,1.506-1.154c98.2-98.199,93.162-93.074,93.774-93.931  c0.853-1.199,1.332-2.571,1.385-4.094c0.003-0.085,0.012-0.168,0.012-0.253V52.671h17.662c3.904,0,7.081,3.177,7.081,7.081v178.194  C439.102,242.089,442.46,245.447,446.602,245.447z M79.98,459.33c-3.904,0-7.081-3.177-7.081-7.081V22.083  c0-3.905,3.177-7.082,7.081-7.082h312.296c3.904,0,7.081,3.177,7.081,7.082c0,11.381,0,322.474,0,344.273h-70.892  c-12.177,0-22.082,9.906-22.082,22.081v70.892C297.138,459.33,89.762,459.33,79.98,459.33z M321.383,448.722v-60.285  c0-3.904,3.177-7.08,7.081-7.08h60.285C381.609,388.498,328.523,441.584,321.383,448.722z"/>
<g>
</g>
<g>
</g>
<g>
</g>
<g>
</g>
<g>
</g>
<g>
</g>
<g>
</g>
<g>
</g>
<g>
</g>
<g>
</g>
<g>
</g>
<g>
</g>
<g>
</g>
<g>
</g>
<g>
</g>
</svg>
